# xmcd CD database file
#
# Track frame offsets:
#	150
#	12038
#	27111
#	42189
#	57718
#	75216
#	90557
#	119774
#	132950
#	152525
#	169826
#	183026
#	201500
#
# Disc length: 3045 seconds
#
# Revision: 0
# Processed by: cddbd v1.5.2PL0 Copyright (c) Steve Scherf et al.
# Submitted via: CDex 1.51
#
DISCID=9f0be30d
DTITLE=Dave Gleason's Wasted Days - Just Fall To Pieces
DYEAR=2007
DGENRE=Country
TTITLE0=Look At The Way You've Become
TTITLE1=Right Back To Her Heart
TTITLE2=Train Of Blue
TTITLE3=Rusty Ol' Halo
TTITLE4=The Good's Been Gone
TTITLE5=Take Your Memory With You
TTITLE6=Just Fall To Pieces
TTITLE7=Neon Rose
TTITLE8=Since You Went Away
TTITLE9=(Wine) Take Away My Mind
TTITLE10=Couldn't Give You Anything
TTITLE11=Campin' With A Cat
TTITLE12=Wildfire (In Your Eyes)
EXTD=YEAR: 2007
EXTT0=
EXTT1=
EXTT2=
EXTT3=
EXTT4=
EXTT5=
EXTT6=
EXTT7=
EXTT8=
EXTT9=
EXTT10=
EXTT11=
EXTT12=
PLAYORDER=
